<svg viewBox="2 -2 20 22" xmlns="http://www.w3.org/2000/svg" color="#969696" fill="none">
        <g>
          <title>Layer 1</title>
          <path stroke="currentColor" d="m2.685,5.39611c0,-1.29902 0,-1.87604 0.21799,-2.44467c0.21799,-0.56863 0.4977,-0.79127 0.87403,-1.01363c0.42782,-0.25281 0.98788,-0.25281 2.10798,-0.25281l11.6,0c1.1201,0 1.6802,0 2.108,0.25281c0.3763,0.22237 0.6823,0.57719 0.874,1.01363c0.218,0.49615 0.218,1.14567 0.218,2.44467l0,3.01528c0,1.299 0,1.94857 -0.218,2.44469c-0.1917,0.4364 -0.4977,0.79128 -0.874,1.0136c-0.4278,0.25282 -0.9879,0.25282 -2.108,0.25282l-11.6,0c-1.12011,0 -1.68016,0 -2.10798,-0.25282c-0.37633,-0.22232 -0.68229,-0.57719 -0.87403,-1.0136c-0.21799,-0.49613 -0.21799,-1.14569 -0.21799,-2.44469l0,-3.01528z" stroke-width="1.37" stroke-linecap="round" stroke-linejoin="round" id="svg_1"/>
          <path d="m7.1875,15l1,0l0,1l-1,0l0,-1z" stroke="currentColor" stroke-width="2" stroke-linecap="round" stroke-linejoin="round" id="svg_2"/>
          <path d="m12,15l1,0l0,1l-1,0l0,-1z" stroke="currentColor" stroke-width="2" stroke-linecap="round" stroke-linejoin="round" id="svg_3"/>
          <path d="m20,15l1,0l0,1l-1,0l0,-1z" stroke="currentColor" stroke-width="2" stroke-linecap="round" stroke-linejoin="round" id="svg_4"/>
          <path d="m3.0625,15l1,0l0,1l-1,0l0,-1z" stroke="currentColor" stroke-width="2" stroke-linecap="round" stroke-linejoin="round" id="svg_5"/>
          <path d="m16,15l1,0l0,1l-1,0l0,-1z" stroke="currentColor" stroke-width="2" stroke-linecap="round" stroke-linejoin="round" id="svg_6"/>
        </g>

        </svg>