<svg version="1.1" color="#d6d6d6" viewBox="-1 -2 20 22" xmlns="http://www.w3.org/2000/svg">
      <g>
        <!-- {/* <rect height="17.9991" opacity="0" width="17.972" x="0" y="0"/> */} -->
        <path d="M1.86923 8.20391L6.30755 8.20391Q7.23903 8.20391 7.70791 7.72992Q8.17679 7.25594 8.17679 6.29325L8.17679 1.9274Q8.17679 0.964678 7.70791 0.490714Q7.23903 0.0167333 6.30755 0.0167333L1.86923 0.0167333Q0.937782 0.0167333 0.468896 0.490714Q0 0.964678 0 1.9274L0 6.29325Q0 7.25594 0.468896 7.72992Q0.937782 8.20391 1.86923 8.20391ZM1.88384 6.81953Q1.37403 6.81953 1.37403 6.28903L1.37403 1.92126Q1.37403 1.40115 1.88384 1.40115L6.28264 1.40115Q6.80275 1.40115 6.80275 1.92126L6.80275 6.28903Q6.80275 6.81953 6.28264 6.81953ZM11.6645 8.20391L16.1027 8.20391Q17.0446 8.20391 17.5083 7.72992Q17.972 7.25594 17.972 6.29325L17.972 1.9274Q17.972 0.964678 17.5083 0.490714Q17.0446 0.0167333 16.1027 0.0167333L11.6645 0.0167333Q10.733 0.0167333 10.2641 0.490714Q9.79521 0.964678 9.79521 1.9274L9.79521 6.29325Q9.79521 7.25594 10.2641 7.72992Q10.733 8.20391 11.6645 8.20391ZM11.6894 6.81953Q11.1692 6.81953 11.1692 6.28903L11.1692 1.92126Q11.1692 1.40115 11.6894 1.40115L16.0882 1.40115Q16.598 1.40115 16.598 1.92126L16.598 6.28903Q16.598 6.81953 16.0882 6.81953ZM1.86923 17.9991L6.30755 17.9991Q7.23903 17.9991 7.70791 17.5303Q8.17679 17.0615 8.17679 16.0884L8.17679 11.7226Q8.17679 10.7599 7.70791 10.2911Q7.23903 9.82231 6.30755 9.82231L1.86923 9.82231Q0.937782 9.82231 0.468896 10.2911Q0 10.7599 0 11.7226L0 16.0884Q0 17.0615 0.468896 17.5303Q0.937782 17.9991 1.86923 17.9991ZM1.88384 16.6147Q1.37403 16.6147 1.37403 16.0946L1.37403 11.7268Q1.37403 11.1963 1.88384 11.1963L6.28264 11.1963Q6.80275 11.1963 6.80275 11.7268L6.80275 16.0946Q6.80275 16.6147 6.28264 16.6147ZM11.6645 17.9991L16.1027 17.9991Q17.0446 17.9991 17.5083 17.5303Q17.972 17.0615 17.972 16.0884L17.972 11.7226Q17.972 10.7599 17.5083 10.2911Q17.0446 9.82231 16.1027 9.82231L11.6645 9.82231Q10.733 9.82231 10.2641 10.2911Q9.79521 10.7599 9.79521 11.7226L9.79521 16.0884Q9.79521 17.0615 10.2641 17.5303Q10.733 17.9991 11.6645 17.9991ZM11.6894 16.6147Q11.1692 16.6147 11.1692 16.0946L11.1692 11.7268Q11.1692 11.1963 11.6894 11.1963L16.0882 11.1963Q16.598 11.1963 16.598 11.7268L16.598 16.0946Q16.598 16.6147 16.0882 16.6147Z" fill="currentColor"/>
      </g>
      </svg>